<svg xmlns="http://www.w3.org/2000/svg" version="1.1" xmlns:xlink="http://www.w3.org/1999/xlink" width="1000" height="1000"><g clip-path="url(#SvgjsClipPath1086)"><rect width="1000" height="1000" fill="#d5966c"></rect><g transform="matrix(0.8014247551202137,0,0,0.8014247551202137,181.83437221727513,50)"><svg xmlns="http://www.w3.org/2000/svg" version="1.1" xmlns:xlink="http://www.w3.org/1999/xlink" width="794" height="1123"><svg xmlns="http://www.w3.org/2000/svg" xmlns:xlink="http://www.w3.org/1999/xlink" width="794" zoomAndPan="magnify" viewBox="0 0 595.5 842.249979" height="1123" preserveAspectRatio="xMidYMid meet" version="1.0"><defs><clipPath id="4d5df157bd"><path d="M 1.222656 79 L 90 79 L 90 168 L 1.222656 168 Z M 1.222656 79 " clip-rule="nonzero"></path></clipPath><clipPath id="196c531360"><path d="M 457 79 L 545.441406 79 L 545.441406 168 L 457 168 Z M 457 79 " clip-rule="nonzero"></path></clipPath><clipPath id="a3466c008a"><path d="M 457 635 L 545.441406 635 L 545.441406 724 L 457 724 Z M 457 635 " clip-rule="nonzero"></path></clipPath><clipPath id="715bb5c465"><path d="M 1.222656 635 L 90 635 L 90 724 L 1.222656 724 Z M 1.222656 635 " clip-rule="nonzero"></path></clipPath><clipPath id="8cb96391b7"><path d="M 124 1.496094 L 423 1.496094 L 423 136 L 124 136 Z M 124 1.496094 " clip-rule="nonzero"></path></clipPath><clipPath id="a4494e62e8"><rect x="0" width="547" y="0" height="725"></rect></clipPath><clipPath id="SvgjsClipPath1086"><rect width="1000" height="1000" x="0" y="0" rx="250" ry="250"></rect></clipPath></defs><g transform="matrix(1, 0, 0, 1, 24, 58)"><g clip-path="url(#a4494e62e8)"><path fill="#151515" d="M 469.359375 691.765625 L 77.632812 691.765625 C 71.195312 691.765625 65.832031 686.554688 65.832031 679.964844 C 65.832031 673.375 71.042969 668.164062 77.632812 668.164062 L 469.359375 668.164062 C 475.796875 668.164062 481.160156 673.375 481.160156 679.964844 C 481.160156 686.554688 475.949219 691.765625 469.359375 691.765625 Z M 501.542969 659.429688 C 495.105469 659.429688 489.742188 654.21875 489.742188 647.628906 L 489.742188 155.671875 C 489.742188 149.238281 494.953125 143.871094 501.542969 143.871094 C 508.132812 143.871094 513.34375 149.082031 513.34375 155.671875 L 513.34375 647.628906 C 513.34375 654.21875 508.132812 659.429688 501.542969 659.429688 Z M 45.449219 659.429688 C 39.011719 659.429688 33.648438 654.21875 33.648438 647.628906 L 33.648438 155.671875 C 33.648438 149.238281 38.859375 143.871094 45.449219 143.871094 C 52.039062 143.871094 57.25 149.082031 57.25 155.671875 L 57.25 647.628906 C 57.097656 654.21875 51.886719 659.429688 45.449219 659.429688 Z M 469.359375 135.289062 L 77.632812 135.289062 C 71.195312 135.289062 65.832031 130.078125 65.832031 123.488281 C 65.832031 116.898438 71.042969 111.6875 77.632812 111.6875 L 469.359375 111.6875 C 475.796875 111.6875 481.160156 116.898438 481.160156 123.488281 C 481.160156 130.078125 475.949219 135.289062 469.359375 135.289062 Z M 469.359375 135.289062 " fill-opacity="1" fill-rule="nonzero"></path><path fill="#151515" d="M 452.960938 639.503906 L 94.03125 639.503906 C 87.59375 639.503906 82.230469 634.296875 82.230469 627.703125 L 82.230469 175.75 C 82.230469 169.3125 87.441406 163.949219 94.03125 163.949219 L 452.960938 163.949219 C 459.398438 163.949219 464.761719 169.160156 464.761719 175.75 L 464.761719 627.703125 C 464.761719 634.296875 459.398438 639.503906 452.960938 639.503906 Z M 105.832031 615.902344 L 441.160156 615.902344 L 441.160156 187.550781 L 105.832031 187.550781 Z M 105.832031 615.902344 " fill-opacity="1" fill-rule="nonzero"></path><g clip-path="url(#4d5df157bd)"><path fill="#151515" d="M 45.449219 167.472656 C 21.234375 167.472656 1.464844 147.703125 1.464844 123.488281 C 1.464844 99.273438 21.234375 79.503906 45.449219 79.503906 C 69.664062 79.503906 89.433594 99.273438 89.433594 123.488281 C 89.433594 147.703125 69.664062 167.472656 45.449219 167.472656 Z M 45.449219 103.105469 C 34.109375 103.105469 25.066406 112.300781 25.066406 123.488281 C 25.066406 134.675781 34.261719 143.871094 45.449219 143.871094 C 56.636719 143.871094 65.832031 134.675781 65.832031 123.488281 C 65.832031 112.300781 56.636719 103.105469 45.449219 103.105469 Z M 45.449219 103.105469 " fill-opacity="1" fill-rule="nonzero"></path></g><g clip-path="url(#196c531360)"><path fill="#151515" d="M 501.542969 167.472656 C 477.328125 167.472656 457.558594 147.703125 457.558594 123.488281 C 457.558594 99.273438 477.328125 79.503906 501.542969 79.503906 C 525.757812 79.503906 545.527344 99.273438 545.527344 123.488281 C 545.527344 147.703125 525.910156 167.472656 501.542969 167.472656 Z M 501.542969 103.105469 C 490.203125 103.105469 481.160156 112.300781 481.160156 123.488281 C 481.160156 134.675781 490.355469 143.871094 501.542969 143.871094 C 512.730469 143.871094 521.925781 134.675781 521.925781 123.488281 C 521.925781 112.300781 512.882812 103.105469 501.542969 103.105469 Z M 501.542969 103.105469 " fill-opacity="1" fill-rule="nonzero"></path></g><g clip-path="url(#a3466c008a)"><path fill="#151515" d="M 501.542969 723.949219 C 477.328125 723.949219 457.558594 704.179688 457.558594 679.964844 C 457.558594 655.75 477.328125 635.980469 501.542969 635.980469 C 525.757812 635.980469 545.527344 655.75 545.527344 679.964844 C 545.527344 704.179688 525.910156 723.949219 501.542969 723.949219 Z M 501.542969 659.429688 C 490.203125 659.429688 481.160156 668.625 481.160156 679.8125 C 481.160156 691.152344 490.355469 700.195312 501.542969 700.195312 C 512.730469 700.195312 521.925781 691 521.925781 679.8125 C 522.078125 668.625 512.882812 659.429688 501.542969 659.429688 Z M 501.542969 659.429688 " fill-opacity="1" fill-rule="nonzero"></path></g><g clip-path="url(#715bb5c465)"><path fill="#151515" d="M 45.449219 723.949219 C 21.234375 723.949219 1.464844 704.179688 1.464844 679.964844 C 1.464844 655.75 21.234375 635.980469 45.449219 635.980469 C 69.664062 635.980469 89.433594 655.75 89.433594 679.964844 C 89.433594 704.179688 69.664062 723.949219 45.449219 723.949219 Z M 45.449219 659.429688 C 34.109375 659.429688 25.066406 668.625 25.066406 679.8125 C 25.066406 691.152344 34.261719 700.195312 45.449219 700.195312 C 56.636719 700.195312 65.832031 691 65.832031 679.8125 C 65.832031 668.625 56.636719 659.429688 45.449219 659.429688 Z M 45.449219 659.429688 " fill-opacity="1" fill-rule="nonzero"></path></g><g clip-path="url(#8cb96391b7)"><path fill="#151515" d="M 410.96875 135.289062 C 408.363281 135.289062 405.757812 134.371094 403.609375 132.683594 L 273.496094 28.316406 L 143.378906 132.683594 C 138.324219 136.824219 130.96875 135.902344 126.828125 130.847656 C 122.691406 125.789062 123.609375 118.433594 128.667969 114.292969 L 266.140625 4.101562 C 270.429688 0.578125 276.5625 0.578125 280.851562 4.101562 L 418.324219 114.292969 C 423.382812 118.433594 424.148438 125.789062 420.164062 130.847656 C 417.863281 133.757812 414.339844 135.289062 410.96875 135.289062 Z M 410.96875 135.289062 " fill-opacity="1" fill-rule="nonzero"></path></g></g></g></svg></svg></g></g></svg>